<?xml version="1.0" encoding="us-ascii" standalone="no"?><svg xmlns="http://www.w3.org/2000/svg" xmlns:xlink="http://www.w3.org/1999/xlink" contentStyleType="text/css" height="812px" preserveAspectRatio="none" style="width:854px;height:812px;background:#FFFFFF;" version="1.1" viewBox="0 0 854 812" width="854px" zoomAndPan="magnify"><defs/><g><!--cluster System--><g id="cluster_System"><rect fill="none" height="799" rx="2.5" ry="2.5" style="stroke:#181818;stroke-width:1.0;" width="635.29" x="213" y="7"/><text fill="#000000" font-family="sans-serif" font-size="14" font-weight="bold" lengthAdjust="spacing" textLength="58" x="501.645" y="21.9951">System</text></g><g id="elem_UC1"><ellipse cx="361.5695" cy="302.0019" fill="#F1F1F1" rx="95.9095" ry="21.5819" style="stroke:#181818;stroke-width:0.5;"/><text fill="#000000" font-family="sans-serif" font-size="14" lengthAdjust="spacing" textLength="155" x="284.0695" y="304.8486">Register/Create Profile</text></g><g id="elem_UC2"><ellipse cx="361.5743" cy="142.9989" fill="#F1F1F1" rx="111.4443" ry="24.6889" style="stroke:#181818;stroke-width:0.5;"/><text fill="#000000" font-family="sans-serif" font-size="14" lengthAdjust="spacing" textLength="189" x="267.0743" y="145.8455">Search for Sports Locations</text></g><g id="elem_UC3"><ellipse cx="361.5695" cy="224.0019" fill="#F1F1F1" rx="95.9095" ry="21.5819" style="stroke:#181818;stroke-width:0.5;"/><text fill="#000000" font-family="sans-serif" font-size="14" lengthAdjust="spacing" textLength="155" x="284.0695" y="226.8486">Book Sports Locations</text></g><g id="elem_UC4"><ellipse cx="361.5721" cy="387.0044" fill="#F1F1F1" rx="132.5721" ry="28.9144" style="stroke:#181818;stroke-width:0.5;"/><text fill="#000000" font-family="sans-serif" font-size="14" lengthAdjust="spacing" textLength="234" x="244.5721" y="389.8511">Rate and Review Sports Locations</text></g><g id="elem_UC5"><ellipse cx="361.5667" cy="63.0013" fill="#F1F1F1" rx="90.5567" ry="20.5113" style="stroke:#181818;stroke-width:0.5;"/><text fill="#000000" font-family="sans-serif" font-size="14" lengthAdjust="spacing" textLength="143" x="290.0667" y="65.848">Receive Notifications</text></g><g id="elem_UC6"><ellipse cx="361.5714" cy="765.0023" fill="#F1F1F1" rx="115.1614" ry="25.4323" style="stroke:#181818;stroke-width:0.5;"/><text fill="#000000" font-family="sans-serif" font-size="14" lengthAdjust="spacing" textLength="197" x="263.0714" y="767.849">Register/List Sports Location</text></g><g id="elem_UC7"><ellipse cx="361.568" cy="685.9976" fill="#F1F1F1" rx="82.288" ry="18.8576" style="stroke:#181818;stroke-width:0.5;"/><text fill="#000000" font-family="sans-serif" font-size="14" lengthAdjust="spacing" textLength="124" x="298.7305" y="689.1238">Manage Bookings</text></g><g id="elem_UC8"><ellipse cx="361.5744" cy="471.0029" fill="#F1F1F1" rx="90.1144" ry="20.4229" style="stroke:#181818;stroke-width:0.5;"/><text fill="#000000" font-family="sans-serif" font-size="14" lengthAdjust="spacing" textLength="142" x="290.5744" y="473.8496">Respond to Reviews</text></g><g id="elem_UC9"><ellipse cx="361.5693" cy="542.9959" fill="#F1F1F1" rx="71.9293" ry="16.7859" style="stroke:#181818;stroke-width:0.5;"/><text fill="#000000" font-family="sans-serif" font-size="14" lengthAdjust="spacing" textLength="98" x="309.5693" y="546.7434">Receive Alerts</text></g><g id="elem_UC10"><ellipse cx="361.5655" cy="612.9991" fill="#F1F1F1" rx="81.4455" ry="18.6891" style="stroke:#181818;stroke-width:0.5;"/><text fill="#000000" font-family="sans-serif" font-size="14" lengthAdjust="spacing" textLength="122" x="299.4309" y="616.219">Update Availability</text></g><g id="elem_SPP"><ellipse cx="728.2151" cy="377.995" fill="#F1F1F1" rx="104.0751" ry="23.215" style="stroke:#181818;stroke-width:0.5;"/><text fill="#000000" font-family="sans-serif" font-size="14" lengthAdjust="spacing" textLength="173" x="641.7151" y="380.8417">Secure Payment Process</text></g><g id="elem_PV"><ellipse cx="728.2171" cy="754.9954" fill="#F1F1F1" rx="81.0271" ry="18.6054" style="stroke:#181818;stroke-width:0.5;"/><text fill="#000000" font-family="sans-serif" font-size="14" lengthAdjust="spacing" textLength="121" x="666.4315" y="758.2618">Profile Verification</text></g><g id="elem_AS"><ellipse cx="728.2207" cy="143.0021" fill="#F1F1F1" rx="80.6107" ry="18.5221" style="stroke:#181818;stroke-width:0.5;"/><text fill="#000000" font-family="sans-serif" font-size="14" lengthAdjust="spacing" textLength="120" x="666.7826" y="146.3148">Advanced Search</text></g><g id="elem_RM"><ellipse cx="728.2223" cy="500.9985" fill="#F1F1F1" rx="101.7923" ry="22.7585" style="stroke:#181818;stroke-width:0.5;"/><text fill="#000000" font-family="sans-serif" font-size="14" lengthAdjust="spacing" textLength="168" x="644.2223" y="503.8451">Reservation Modification</text></g><g id="elem_DP"><ellipse cx="728.2176" cy="684.0035" fill="#F1F1F1" rx="76.1676" ry="17.6335" style="stroke:#181818;stroke-width:0.5;"/><text fill="#000000" font-family="sans-serif" font-size="14" lengthAdjust="spacing" textLength="109" x="670.7176" y="687.7511">Dynamic Pricing</text></g><!--entity Admin--><g id="elem_Admin"><ellipse cx="54.5" cy="302.35" fill="#F1F1F1" rx="8" ry="8" style="stroke:#181818;stroke-width:0.5;"/><path d="M54.5,310.35 L54.5,337.35 M41.5,318.35 L67.5,318.35 M54.5,337.35 L41.5,352.35 M54.5,337.35 L67.5,352.35 " fill="none" style="stroke:#181818;stroke-width:0.5;"/><text fill="#000000" font-family="sans-serif" font-size="14" lengthAdjust="spacing" textLength="43" x="33" y="366.8451">Admin</text></g><!--entity User--><g id="elem_User"><ellipse cx="54.5" cy="74.35" fill="#F1F1F1" rx="8" ry="8" style="stroke:#181818;stroke-width:0.5;"/><path d="M54.5,82.35 L54.5,109.35 M41.5,90.35 L67.5,90.35 M54.5,109.35 L41.5,124.35 M54.5,109.35 L67.5,124.35 " fill="none" style="stroke:#181818;stroke-width:0.5;"/><text fill="#000000" font-family="sans-serif" font-size="14" lengthAdjust="spacing" textLength="32" x="38.5" y="138.8451">User</text></g><!--entity Facility_Owner--><g id="elem_Facility_Owner"><ellipse cx="54.5" cy="587.35" fill="#F1F1F1" rx="8" ry="8" style="stroke:#181818;stroke-width:0.5;"/><path d="M54.5,595.35 L54.5,622.35 M41.5,603.35 L67.5,603.35 M54.5,622.35 L41.5,637.35 M54.5,622.35 L67.5,637.35 " fill="none" style="stroke:#181818;stroke-width:0.5;"/><text fill="#000000" font-family="sans-serif" font-size="14" lengthAdjust="spacing" textLength="97" x="6" y="651.8451">Facility_Owner</text></g><!--link Admin to UC1--><g id="link_Admin_UC1"><path d="M76.35,353.45 C105.99,381.34 160.7,423.05 197,392 C214.44,377.09 189.52,357.94 205,341 C221.34,323.12 238.7094,314.2955 262.2294,308.5855 " fill="none" id="Admin-to-UC1" style="stroke:#181818;stroke-width:1.0;"/><polygon fill="#181818" points="268.06,307.17,258.3704,305.4062,263.2011,308.3496,260.2577,313.1804,268.06,307.17" style="stroke:#181818;stroke-width:1.0;"/><text fill="#000000" font-family="sans-serif" font-size="13" lengthAdjust="spacing" textLength="58" x="136" y="388.0669">Manages</text></g><!--link Admin to UC2--><g id="link_Admin_UC2"><path d="M68.55,293.63 C80.67,263.73 101.62,223.49 133,200 C155.13,183.43 211.8896,169.5514 265.8696,159.0914 " fill="none" id="Admin-to-UC2" style="stroke:#181818;stroke-width:1.0;"/><polygon fill="#181818" points="271.76,157.95,262.1634,155.7352,266.8513,158.9012,263.6853,163.5891,271.76,157.95" style="stroke:#181818;stroke-width:1.0;"/><text fill="#000000" font-family="sans-serif" font-size="13" lengthAdjust="spacing" textLength="58" x="136" y="172.0669">Manages</text></g><!--link Admin to UC3--><g id="link_Admin_UC3"><path d="M76.37,328.78 C106.28,323.21 161.6,309.22 197,278 C202.67,273 199.05,267.65 205,263 C224.53,247.74 243.4436,239.7716 267.4336,234.0516 " fill="none" id="Admin-to-UC3" style="stroke:#181818;stroke-width:1.0;"/><polygon fill="#181818" points="273.27,232.66,263.5877,230.8565,268.4063,233.8197,265.4431,238.6383,273.27,232.66" style="stroke:#181818;stroke-width:1.0;"/><text fill="#000000" font-family="sans-serif" font-size="13" lengthAdjust="spacing" textLength="36" x="147" y="274.0669">Views</text></g><!--link Admin to UC4--><g id="link_Admin_UC4"><path d="M75.39,370.64 C88.58,391.8 108.07,416.09 133,428 C159.12,440.48 222.2734,427.4658 277.4834,412.3358 " fill="none" id="Admin-to-UC4" style="stroke:#181818;stroke-width:1.0;"/><polygon fill="#181818" points="283.27,410.75,273.5328,409.2709,278.4478,412.0715,275.6472,416.9865,283.27,410.75" style="stroke:#181818;stroke-width:1.0;"/><text fill="#000000" font-family="sans-serif" font-size="13" lengthAdjust="spacing" textLength="52" x="139" y="424.0669">Handles</text></g><!--link User to UC1--><g id="link_User_UC1"><path d="M70.99,138.06 C84.37,164.47 105.82,200.56 133,225 C156.65,246.26 169.95,240.28 197,257 C200.78,259.34 200.99,261.09 205,263 C229.51,274.68 252.0752,281.7542 277.8552,287.7342 " fill="none" id="User-to-UC1" style="stroke:#181818;stroke-width:1.0;"/><polygon fill="#181818" points="283.7,289.09,275.8366,283.1598,278.8293,287.9602,274.0289,290.9529,283.7,289.09" style="stroke:#181818;stroke-width:1.0;"/><text fill="#000000" font-family="sans-serif" font-size="13" lengthAdjust="spacing" textLength="58" x="136" y="221.0669">Executes</text></g><!--link User to UC2--><g id="link_User_UC2"><path d="M70.76,99.37 C86.26,94.92 111.04,88.52 133,86 C161.26,82.76 172.61,71.37 197,86 C203.48,89.89 199.09,96.29 205,101 C222.29,114.76 237.9705,122.3482 259.3405,128.5882 " fill="none" id="User-to-UC2" style="stroke:#181818;stroke-width:1.0;"/><polygon fill="#181818" points="265.1,130.27,257.5819,123.9077,260.3004,128.8685,255.3396,131.587,265.1,130.27" style="stroke:#181818;stroke-width:1.0;"/><text fill="#000000" font-family="sans-serif" font-size="13" lengthAdjust="spacing" textLength="58" x="136" y="75.0669">Executes</text></g><!--link User to UC3--><g id="link_User_UC3"><path d="M70.86,106.17 C103.84,111.13 179.81,124.36 197,143 C209.88,156.97 191.95,171.18 205,185 C221.63,202.61 239.1002,211.341 262.6002,217.061 " fill="none" id="User-to-UC3" style="stroke:#181818;stroke-width:1.0;"/><polygon fill="#181818" points="268.43,218.48,260.6313,212.465,263.5718,217.2975,258.7393,220.238,268.43,218.48" style="stroke:#181818;stroke-width:1.0;"/><text fill="#000000" font-family="sans-serif" font-size="13" lengthAdjust="spacing" textLength="58" x="136" y="114.0669">Executes</text></g><!--link User to UC4--><g id="link_User_UC4"><path d="M65.97,142.42 C83.44,205.3 118.07,324.6 133,338 C150.26,353.49 191.8528,363.9465 239.0228,371.8665 " fill="none" id="User-to-UC4" style="stroke:#181818;stroke-width:1.0;"/><polygon fill="#181818" points="244.94,372.86,236.7266,367.4249,240.009,372.0321,235.4019,375.3145,244.94,372.86" style="stroke:#181818;stroke-width:1.0;"/><text fill="#000000" font-family="sans-serif" font-size="13" lengthAdjust="spacing" textLength="58" x="136" y="334.0669">Executes</text></g><!--link User to UC5--><g id="link_User_UC5"><path d="M70.77,90.3 C85.5,78.08 109.04,61.06 133,54 C185.25,38.61 241.2238,41.5171 287.2638,48.2871 " fill="none" id="User-to-UC5" style="stroke:#181818;stroke-width:1.0;"/><polygon fill="#181818" points="293.2,49.16,284.8777,43.8932,288.2532,48.4326,283.7138,51.8081,293.2,49.16" style="stroke:#181818;stroke-width:1.0;"/><text fill="#000000" font-family="sans-serif" font-size="13" lengthAdjust="spacing" textLength="56" x="137" y="40.0669">Receives</text></g><!--link Facility_Owner to UC6--><g id="link_Facility_Owner_UC6"><path d="M95.4,655.32 C107.05,665.58 120.12,676.24 133,685 C176.71,714.74 226.8742,733.0211 272.3542,745.5111 " fill="none" id="Facility_Owner-to-UC6" style="stroke:#181818;stroke-width:1.0;"/><polygon fill="#181818" points="278.14,747.1,270.5206,740.8594,273.3185,745.7759,268.402,748.5738,278.14,747.1" style="stroke:#181818;stroke-width:1.0;"/><text fill="#000000" font-family="sans-serif" font-size="13" lengthAdjust="spacing" textLength="58" x="136" y="681.0669">Executes</text></g><!--link Facility_Owner to UC7--><g id="link_Facility_Owner_UC7"><path d="M103.42,636.49 C113.11,639.99 123.3,643.36 133,646 C184.38,660 237.7332,669.3712 282.9032,675.9812 " fill="none" id="Facility_Owner-to-UC7" style="stroke:#181818;stroke-width:1.0;"/><polygon fill="#181818" points="288.84,676.85,280.514,671.589,283.8927,676.126,279.3557,679.5047,288.84,676.85" style="stroke:#181818;stroke-width:1.0;"/><text fill="#000000" font-family="sans-serif" font-size="13" lengthAdjust="spacing" textLength="58" x="136" y="642.0669">Executes</text></g><!--link Facility_Owner to UC8--><g id="link_Facility_Owner_UC8"><path d="M101.08,578.39 C111.39,570.1 122.42,561.56 133,554 C163.7,532.06 170.23,523.66 205,509 C231.51,497.82 256.1631,490.7727 283.0931,484.7827 " fill="none" id="Facility_Owner-to-UC8" style="stroke:#181818;stroke-width:1.0;"/><polygon fill="#181818" points="288.95,483.48,279.2962,481.5295,284.0693,484.5656,281.0332,489.3387,288.95,483.48" style="stroke:#181818;stroke-width:1.0;"/><text fill="#000000" font-family="sans-serif" font-size="13" lengthAdjust="spacing" textLength="62" x="134" y="510.0669">Responds</text></g><!--link Facility_Owner to UC9--><g id="link_Facility_Owner_UC9"><path d="M103.5,603.55 C132.74,595.51 170.93,585.28 205,577 C238.58,568.84 270.5907,561.7955 300.5607,555.4355 " fill="none" id="Facility_Owner-to-UC9" style="stroke:#181818;stroke-width:1.0;"/><polygon fill="#181818" points="306.43,554.19,296.7957,552.1454,301.5389,555.2279,298.4564,559.9712,306.43,554.19" style="stroke:#181818;stroke-width:1.0;"/><text fill="#000000" font-family="sans-serif" font-size="13" lengthAdjust="spacing" textLength="56" x="137" y="575.0669">Receives</text></g><!--link Facility_Owner to UC10--><g id="link_Facility_Owner_UC10"><path d="M103.45,619.15 C113.22,619.5 123.44,619.82 133,620 C182.5,620.96 232.0459,619.5654 275.8659,617.6254 " fill="none" id="Facility_Owner-to-UC10" style="stroke:#181818;stroke-width:1.0;"/><polygon fill="#181818" points="281.86,617.36,272.6919,613.762,276.8649,617.5811,273.0457,621.7541,281.86,617.36" style="stroke:#181818;stroke-width:1.0;"/><text fill="#000000" font-family="sans-serif" font-size="13" lengthAdjust="spacing" textLength="54" x="138" y="616.0669">Updates</text></g><!--reverse link UC3 to SPP--><g id="link_UC3_SPP"><path d="M431.6462,242.0588 C453.5462,248.3588 472.29,254.44 494.14,263 C564.52,290.56 642.58,331.29 688.15,356.15 " fill="none" id="UC3-backto-SPP" style="stroke:#181818;stroke-width:1.0;stroke-dasharray:7.0,7.0;"/><polygon fill="#181818" points="425.88,240.4,433.4234,246.7322,430.6851,241.7823,435.6351,239.044,425.88,240.4" style="stroke:#181818;stroke-width:1.0;"/><text fill="#000000" font-family="sans-serif" font-size="13" lengthAdjust="spacing" textLength="68" x="525.14" y="273.0669">&#171;includes&#187;</text></g><!--reverse link UC7 to SPP--><g id="link_UC7_SPP"><path d="M444.662,677.6715 C465.122,672.2815 479.73,664.6 494.14,649 C540.87,598.42 484.26,553.13 524.14,497 C559.18,447.7 621.58,415.63 667.99,397.35 " fill="none" id="UC7-backto-SPP" style="stroke:#181818;stroke-width:1.0;stroke-dasharray:7.0,7.0;"/><polygon fill="#181818" points="438.86,679.2,448.5821,680.7753,443.695,677.9263,446.5441,673.0392,438.86,679.2" style="stroke:#181818;stroke-width:1.0;"/><text fill="#000000" font-family="sans-serif" font-size="13" lengthAdjust="spacing" textLength="68" x="525.14" y="434.0669">&#171;includes&#187;</text></g><!--reverse link UC1 to PV--><g id="link_UC1_PV"><path d="M452.7956,314.0268 C470.5156,319.8968 481.84,327.07 494.14,341 C548.12,402.12 480.35,453.22 524.14,522 C544.4,553.82 573.34,538.53 594.14,570 C631.4,626.35 579.77,668.07 624.14,719 C634.23,730.58 648.25,738.43 662.71,743.76 " fill="none" id="UC1-backto-PV" style="stroke:#181818;stroke-width:1.0;stroke-dasharray:7.0,7.0;"/><polygon fill="#181818" points="447.1,312.14,454.3856,318.7672,451.8464,313.7123,456.9013,311.1731,447.1,312.14" style="stroke:#181818;stroke-width:1.0;"/><text fill="#000000" font-family="sans-serif" font-size="13" lengthAdjust="spacing" textLength="68" x="525.14" y="518.0669">&#171;includes&#187;</text></g><!--reverse link UC6 to PV--><g id="link_UC6_PV"><path d="M481.9478,761.7261 C537.5578,760.2061 597.21,758.57 647.46,757.19 " fill="none" id="UC6-backto-PV" style="stroke:#181818;stroke-width:1.0;stroke-dasharray:7.0,7.0;"/><polygon fill="#181818" points="475.95,761.89,485.0559,765.6426,480.9481,761.7534,484.8373,757.6456,475.95,761.89" style="stroke:#181818;stroke-width:1.0;"/><text fill="#000000" font-family="sans-serif" font-size="13" lengthAdjust="spacing" textLength="68" x="525.14" y="754.0669">&#171;includes&#187;</text></g><!--reverse link UC2 to AS--><g id="link_UC2_AS"><path d="M479.46,143 C535.51,143 596.26,143 647.23,143 " fill="none" id="UC2-backto-AS" style="stroke:#181818;stroke-width:1.0;stroke-dasharray:7.0,7.0;"/><polygon fill="#181818" points="473.46,143,482.46,147,478.46,143,482.46,139,473.46,143" style="stroke:#181818;stroke-width:1.0;"/><text fill="#000000" font-family="sans-serif" font-size="13" lengthAdjust="spacing" textLength="67" x="525.64" y="139.0669">&#171;extends&#187;</text></g><!--reverse link UC3 to RM--><g id="link_UC3_RM"><path d="M448.4273,237.6184 C466.9373,243.3984 479.69,250.21 494.14,263 C519.19,285.16 504.38,305.03 524.14,332 C558.97,379.52 578.86,381.32 624.14,419 C649.1,439.77 678.09,462.73 698.95,479.06 " fill="none" id="UC3-backto-RM" style="stroke:#181818;stroke-width:1.0;stroke-dasharray:7.0,7.0;"/><polygon fill="#181818" points="442.7,235.83,450.0986,242.3308,447.4727,237.3203,452.4832,234.6944,442.7,235.83" style="stroke:#181818;stroke-width:1.0;"/><text fill="#000000" font-family="sans-serif" font-size="13" lengthAdjust="spacing" textLength="67" x="525.64" y="328.0669">&#171;extends&#187;</text></g><!--reverse link UC7 to RM--><g id="link_UC7_RM"><path d="M428.6165,671.4887 C451.4765,665.5387 471.61,659.06 494.14,649 C572.93,613.82 656.15,554.94 698.62,523.09 " fill="none" id="UC7-backto-RM" style="stroke:#181818;stroke-width:1.0;stroke-dasharray:7.0,7.0;"/><polygon fill="#181818" points="422.81,673,432.5274,674.604,427.6488,671.7406,430.5123,666.862,422.81,673" style="stroke:#181818;stroke-width:1.0;"/><text fill="#000000" font-family="sans-serif" font-size="13" lengthAdjust="spacing" textLength="67" x="525.64" y="591.0669">&#171;extends&#187;</text></g><!--reverse link UC7 to DP--><g id="link_UC7_DP"><path d="M449.9499,685.5172 C512.0799,685.1772 591.05,684.75 651.68,684.41 " fill="none" id="UC7-backto-DP" style="stroke:#181818;stroke-width:1.0;stroke-dasharray:7.0,7.0;"/><polygon fill="#181818" points="443.95,685.55,452.9718,689.5007,448.9499,685.5226,452.928,681.5008,443.95,685.55" style="stroke:#181818;stroke-width:1.0;"/><text fill="#000000" font-family="sans-serif" font-size="13" lengthAdjust="spacing" textLength="67" x="525.64" y="680.0669">&#171;extends&#187;</text></g><!--SRC=[ZPDFR-8m4CNlV8eHztQNFuKM8QHiQRM7qes8uBhosaDgDTZ8Dg6esk- -4oTTnMasx2bHVc_6ppCl6UuSE0r6fYyEX3J8dTIgnxZJ1YAnbn_l6ukcUdraN6RIdN_-E2dws2kAc4epXEHi7UxXlGTmjCYPHTZS3u1PwAynbGJDbtk3p274HkzaXlr0ElJI19dXBx2ZevA3Dix2a-Qiy6L3-SZBlsdzUa4uBYqKvp8bO8svnDE5cflADaUP8pnh9tUoLJW9x_T4ZsRhi63g2rPCiHIXS2zLskXvM_Mq1qr-QK6bvORgBh0OPKXdXeh1Lo_P74HnzoXdCcE__FBgkYIEgy7pew7LiFCUbIjMnD467UEj5rRBWosQlrEfowB4ooAHCyLHGBdHkcAz-hWXcjpNmqgBrcRBqjpohDXUSd8bEGsitoE93oXS2NrILmiVjHcKSxKjTDX9HqItnOnRs9ZOTqfEHfM4Yt-XSUh36ytE-SODEkoaequwxgGtHAlbUrlXVraJJi8s_zHD_rDtwm_ssUpKtTKDTkWefJCeCrhEbyOolxxskPp1V2uLpuu2xMBXuRGB3ZoadBQmIGSRUaR1BHY-EQIxLQWqGudzZAQNq39keDz_0000]--></g></svg>